<?xml version="1.0" standalone="no"?>
<!DOCTYPE svg PUBLIC "-//W3C//DTD SVG 20010904//EN"
 "http://www.w3.org/TR/2001/REC-SVG-20010904/DTD/svg10.dtd">
<svg version="1.0" xmlns="http://www.w3.org/2000/svg"
 width="700.000000pt" height="700.000000pt" viewBox="0 0 700.000000 700.000000"
 preserveAspectRatio="xMidYMid meet">
<metadata>
Created by potrace 1.14, written by Peter Selinger 2001-2017
</metadata>
<g transform="translate(0.000000,700.000000) scale(0.100000,-0.100000)"
fill="#000000" stroke="none">
<path d="M1809 6996 c-2 -2 -33 -7 -69 -10 -228 -20 -475 -89 -685 -192 -120
-58 -114 -55 -230 -133 -349 -236 -602 -595 -730 -1037 -14 -49 -28 -105 -31
-124 -3 -19 -8 -38 -10 -41 -6 -10 -34 -187 -42 -264 -9 -92 -9 -3322 0 -3400
4 -33 10 -71 12 -85 3 -14 7 -43 10 -65 20 -142 85 -369 146 -510 176 -406
456 -712 830 -908 141 -73 344 -147 472 -172 29 -6 91 -19 98 -20 3 -1 32 -5
65 -9 33 -4 71 -11 85 -14 41 -10 3436 -11 3530 -1 524 58 961 279 1266 641
259 309 419 711 461 1163 11 108 10 3300 0 3395 -4 41 -10 84 -12 95 -3 11 -7
31 -9 45 -100 613 -413 1096 -894 1379 -177 104 -411 194 -587 225 -16 3 -41
8 -55 11 -14 3 -43 7 -65 10 -22 3 -56 8 -75 12 -37 7 -3474 16 -3481 9z
m3077 -2392 c143 -72 205 -258 135 -405 -17 -35 -227 -251 -884 -908 -474
-474 -872 -868 -884 -876 -58 -40 -179 -60 -243 -40 -35 10 -93 37 -107 50 -7
5 -212 209 -456 451 -335 334 -450 453 -468 490 -20 41 -24 64 -24 139 0 81 3
95 28 138 38 64 81 105 142 133 95 43 211 36 294 -19 20 -13 176 -164 347
-336 171 -171 314 -311 317 -311 3 0 333 327 734 728 400 400 742 737 758 749
85 59 214 66 311 17z"/>
</g>
</svg>
